<svg viewBox="-3 -3 106 106" xmlns="http://www.w3.org/2000/svg"><defs><path id="p" d="M50 50Q65 30 50 3 35 30 50 50z" stroke-width="3" stroke="#000"/><g id="r"><use href="#p" transform="rotate(0 50 50)"/><use href="#p" transform="rotate(60 50 50)"/><use href="#p" transform="rotate(120 50 50)"/><use href="#p" transform="rotate(180 50 50)"/><use href="#p" transform="rotate(240 50 50)"/><use href="#p" transform="rotate(300 50 50)"/></g></defs><use href="#r" transform="translate(3 3)" fill="#000"/><use href="#r" transform="translate(53 53)scale(.8)rotate(30)translate(-50 -50)" fill="#000"/><g><use href="#p" transform="rotate(0 50 50)" fill="#9A1AFF"/><use href="#p" transform="rotate(60 50 50)" fill="#FF8C3D"/><use href="#p" transform="rotate(120 50 50)" fill="#27D658"/><use href="#p" transform="rotate(180 50 50)" fill="#9A1AFF"/><use href="#p" transform="rotate(240 50 50)" fill="#FF8C3D"/><use href="#p" transform="rotate(300 50 50)" fill="#27D658"/><g transform="translate(50 50)scale(.8)rotate(30)translate(-50 -50)"><use href="#p" transform="rotate(0 50 50)" fill="#EE333A"/><use href="#p" transform="rotate(60 50 50)" fill="#FFF31A"/><use href="#p" transform="rotate(120 50 50)" fill="#535BD1"/><use href="#p" transform="rotate(180 50 50)" fill="#EE333A"/><use href="#p" transform="rotate(240 50 50)" fill="#FFF31A"/><use href="#p" transform="rotate(300 50 50)" fill="#535BD1"/></g><circle cx="50" cy="50" r="18" fill="#000"/></g></svg>